<?xml version="1.0"?>
<svg xmlns:rdf="http://www.w3.org/1999/02/22-rdf-syntax-ns#" xmlns="http://www.w3.org/2000/svg" xmlns:cc="http://creativecommons.org/ns#" xmlns:xlink="http://www.w3.org/1999/xlink" xmlns:dc="http://purl.org/dc/elements/1.1/" xmlns:svg="http://www.w3.org/2000/svg" id="svg3813" viewBox="0 0 380 290" version="1.0">
  <defs id="defs3815">
    <radialGradient id="radialGradient3402" xlink:href="#linearGradient3216" gradientUnits="userSpaceOnUse" cy="462.19" cx="300.63" gradientTransform="matrix(1 0 0 1.0265 53.571 -12.464)" r="10.971"/>
    <radialGradient id="radialGradient3405" gradientUnits="userSpaceOnUse" cy="375.88" cx="408.54" gradientTransform="matrix(1 0 0 1.4233 0 -161.98)" r="8.0469">
      <stop id="stop3208" stop-color="#b3b3b3" offset="0"/>
      <stop id="stop3210" stop-color="#b3b3b3" stop-opacity="0" offset="1"/>
    </radialGradient>
    <linearGradient id="linearGradient3216">
      <stop id="stop3218" stop-color="#b3b3b3" offset="0"/>
      <stop id="stop3220" stop-color="#b3b3b3" stop-opacity="0" offset="1"/>
    </linearGradient>
    <radialGradient id="radialGradient3408" xlink:href="#linearGradient3216" gradientUnits="userSpaceOnUse" cy="462.19" cx="300.63" gradientTransform="matrix(1 0 0 1.0265 0 -12.464)" r="10.971"/>
    <radialGradient id="radialGradient3412" gradientUnits="userSpaceOnUse" cy="378.09" cx="270.58" gradientTransform="matrix(1 0 0 .56930 0 177.43)" r="72.842">
      <stop id="stop3188" stop-color="#ccc" offset="0"/>
      <stop id="stop3190" stop-color="#ccc" stop-opacity="0" offset="1"/>
    </radialGradient>
    <linearGradient id="linearGradient3415" y2="425.51" gradientUnits="userSpaceOnUse" x2="427.34" y1="425.51" x1="277.73">
      <stop id="stop3246" stop-color="#fff" offset="0"/>
      <stop id="stop3248" stop-color="#fff" stop-opacity="0" offset="1"/>
    </linearGradient>
  </defs>
  <g id="layer1">
    <g id="g3488" transform="matrix(2.2248 0 0 2.2248 -587.54 -802.88)">
      <path id="rect3280" d="m413.02 368.49c-1.26 0-2.56 0.69-3.66 2.76l-7.96 19.62c-0.09 0-0.18-0.03-0.28-0.03h-117.98c-1.06 0.05-2.11 0-3.17 0.06-1.28 0.38-2.02 1.73-1.63 3.01 0.36 1.43 0.48 2.77 1.23 4.08l16.62 54.91c-0.1 1.91-0.25 3.32 1.83 3.32h0.48c0.33 0.07 0.68 0.05 1.04-0.03l81.65-0.84c0.95 0 1.04-0.17 0.79-0.51 0.63-0.2 1.19-0.64 1.49-1.29l25.95-57.81c0.1-0.24 0.14-0.49 0.17-0.73l6.07-13.53 5.48 5.79c0.55 1.22 1.96 1.76 3.18 1.21 1.22-0.54 2.96-6.6 2.42-7.81-3.94-3.09-6.06-8.55-10.43-10.94-0.93-0.59-2.08-1.24-3.29-1.24zm-122.79 31.3h106.73l-4.95 12.23c-0.57-0.27-1.2-0.43-1.88-0.43h-96.81l-3.09-11.8zm5.45 20.72h92.87l-3.62 8.94h-86.88l-2.37-8.94zm4.7 17.85h80.95l-3.49 8.55c-0.04 0.1-0.04 0.24-0.05 0.39h-75.05l-2.36-8.94zm11.39 19.15c-6.74 0-12.21 5.6-12.21 12.51s5.47 12.51 12.21 12.51c6.73 0 12.17-5.6 12.17-12.51s-5.44-12.51-12.17-12.51zm53.56 0c-6.73 0-12.2 5.6-12.2 12.51s5.47 12.51 12.2 12.51 12.2-5.6 12.2-12.51-5.47-12.51-12.2-12.51z" stroke="url(#linearGradient3415)" stroke-linecap="round" stroke-width="2" fill="#4d4d4d"/>
      <path id="path2409" d="m413.03 370.5c-1.26 0-2.55 2.68-3.65 4.75l-1.07 2.94c2.31 0.51 4.55 1.16 6.72 1.93l0.13-0.24 0.4 0.46c3.37 1.25 6.56 2.8 9.53 4.69 0.62-1.57 1.05-3.47 0.72-4.19l-6.59-6.43c-0.13-0.62-0.51-1.18-1.06-1.53-0.6-0.66-1.21-1.01-1.85-1.16-0.92-0.59-2.06-1.22-3.28-1.22zm-68.06 22.22l-61.81 0.12c-0.19 0-0.39 0.04-0.57 0.07-1.97-0.38-1.56 0.18-2.25 1 0.36 1.43 0.55 2.74 1.22 4.09l16.63 52.91c-0.06 1.05-0.11 1.93 0.19 2.53 0.97-3.21 2.12-6.42 3.46-9.6l-1.46-5.46h3.96c1.49-3.01 3.11-6.02 4.91-8.94h-11.22l-2.34-8.94h19.69c2.29-3.05 4.76-6.04 7.4-8.91h-29.47l-3.09-11.81h45.12c1.94-1.57 3.95-3.1 6-4.56 1.22-0.86 2.41-1.7 3.63-2.5z" fill="url(#radialGradient3412)"/>
      <path id="path2411" opacity=".5" d="m416.16 378.67c-2.59 0.14-4.27 3.18-6.21 5.86-3.36 4.65-16.87 42.13-24.02 46.42-6.15 3.69-0.76 2.38-11.19 7.4h6.1l-3.5 8.57c-0.05 0.09-0.05 0.22-0.06 0.37h-24.54c-12.89 4.12-23.97 5.78-28.59 5.78-1.55 0-3.98 0.38-6.75 0.94l61.28-0.66c0.95 0 1.04-0.16 0.78-0.5 0.64-0.2 1.21-0.65 1.5-1.31l25.94-55.81c0.11-0.23 0.47-0.58 0.5-0.81l8.2-14.66 5.65 6c0.55 1.22 1.38 2.14 2.6 1.6 0.85-0.38 1.64-2.86 1.96-4.69-0.04-0.16-0.01-0.27 0.07-0.37 0.04-0.34 0.42-0.59 0.41-0.85-0.48-0.37-2.5-1.48-5.01-2.44-2.82-1.07-3.56-0.92-5.12-0.84z" fill="#333"/>
      <path id="path3196" d="m311.62 458.59c-6.06 0-11 5.03-11 11.25 0 4.9 3.06 9.04 7.32 10.6-1.87-2.02-3.03-4.75-3.03-7.75 0-6.22 4.94-11.25 11-11.25 1.28 0 2.51 0.24 3.65 0.65-1.99-2.16-4.8-3.5-7.94-3.5z" fill="url(#radialGradient3408)"/>
      <path id="path3198" d="m413 371.2c-1.25 0-2.55 2.68-3.65 4.75l-6 16.5c0.49 0.48 0.92 1.04 1.25 1.66 1.4-10.04 7.42-17.79 14.84-18.78l-0.22-0.22c-0.13-0.62-0.5-1.15-1.06-1.5-0.6-0.66-1.21-1.01-1.84-1.16-0.93-0.59-2.1-1.25-3.32-1.25z" fill="url(#radialGradient3405)"/>
      <path id="path3229" d="m365.2 458.59c-6.06 0-11 5.03-11 11.25 0 4.9 3.06 9.04 7.31 10.6-1.87-2.02-3.03-4.75-3.03-7.75 0-6.22 4.94-11.25 11-11.25 1.28 0 2.51 0.24 3.65 0.65-1.99-2.16-4.8-3.5-7.93-3.5z" fill="url(#radialGradient3402)"/>
    </g>
  </g>
  <metadata>
    <rdf:RDF>
      <cc:Work>
        <dc:format>image/svg+xml</dc:format>
        <dc:type rdf:resource="http://purl.org/dc/dcmitype/StillImage"/>
        <cc:license rdf:resource="http://creativecommons.org/licenses/publicdomain/"/>
        <dc:publisher>
          <cc:Agent rdf:about="http://openclipart.org/">
            <dc:title>Openclipart</dc:title>
          </cc:Agent>
        </dc:publisher>
        <dc:title>Shopping Cart</dc:title>
        <dc:date>2009-06-18T20:11:03</dc:date>
        <dc:description>A shopping Cart I made using inkscape. It is a pretty standard ecommerce shopping cart.</dc:description>
        <dc:source>http://openclipart.org/detail/26719/shopping-cart-by-baroquon</dc:source>
        <dc:creator>
          <cc:Agent>
            <dc:title>baroquon</dc:title>
          </cc:Agent>
        </dc:creator>
        <dc:subject>
          <rdf:Bag>
            <rdf:li>cart</rdf:li>
            <rdf:li>cartoon</rdf:li>
            <rdf:li>clip art</rdf:li>
            <rdf:li>clipart</rdf:li>
            <rdf:li>commerce</rdf:li>
            <rdf:li>food</rdf:li>
            <rdf:li>icon</rdf:li>
            <rdf:li>image</rdf:li>
            <rdf:li>inkscape</rdf:li>
            <rdf:li>media</rdf:li>
            <rdf:li>public domain</rdf:li>
            <rdf:li>shiney</rdf:li>
            <rdf:li>shoping</rdf:li>
            <rdf:li>shopping cart</rdf:li>
            <rdf:li>svg</rdf:li>
          </rdf:Bag>
        </dc:subject>
      </cc:Work>
      <cc:License rdf:about="http://creativecommons.org/licenses/publicdomain/">
        <cc:permits rdf:resource="http://creativecommons.org/ns#Reproduction"/>
        <cc:permits rdf:resource="http://creativecommons.org/ns#Distribution"/>
        <cc:permits rdf:resource="http://creativecommons.org/ns#DerivativeWorks"/>
      </cc:License>
    </rdf:RDF>
  </metadata>
</svg>
